<svg width="26" height="19" viewBox="0 0 26 19" fill="none" xmlns="http://www.w3.org/2000/svg">
<path d="M4.51943 0.0681152H21.6713C22.7211 0.0681152 23.7278 0.46428 24.4701 1.16946C25.2124 1.87464 25.6294 2.83106 25.6294 3.82833V15.109C25.6294 16.1063 25.2124 17.0627 24.4701 17.7679C23.7278 18.473 22.7211 18.8692 21.6713 18.8692H4.51943C3.46967 18.8692 2.46291 18.473 1.72062 17.7679C0.978325 17.0627 0.56131 16.1063 0.56131 15.109V3.82833C0.56131 2.83106 0.978325 1.87464 1.72062 1.16946C2.46291 0.46428 3.46967 0.0681152 4.51943 0.0681152ZM4.51943 1.32152C3.85975 1.32152 3.27922 1.5346 2.83063 1.91062L13.0954 8.21525L23.3601 1.91062C22.9115 1.5346 22.331 1.32152 21.6713 1.32152H4.51943ZM13.0954 9.73188L2.0522 2.92588C1.94665 3.20163 1.88068 3.51498 1.88068 3.82833V15.109C1.88068 15.7738 2.15869 16.4115 2.65356 16.8816C3.14842 17.3517 3.81959 17.6158 4.51943 17.6158H21.6713C22.3711 17.6158 23.0423 17.3517 23.5372 16.8816C24.032 16.4115 24.3101 15.7738 24.3101 15.109V3.82833C24.3101 3.51498 24.2441 3.20163 24.1385 2.92588L13.0954 9.73188Z" fill="#A4A4A4"/>
</svg>
